<?xml version="1.0" encoding="utf-8"?>
<!-- Generator: Adobe Illustrator 16.0.0, SVG Export Plug-In . SVG Version: 6.00 Build 0)  -->
<!DOCTYPE svg PUBLIC "-//W3C//DTD SVG 1.1//EN" "http://www.w3.org/Graphics/SVG/1.1/DTD/svg11.dtd">
<svg version="1.1" id="Layer_1" xmlns="http://www.w3.org/2000/svg" xmlns:xlink="http://www.w3.org/1999/xlink" x="0px" y="0px"
	 width="29.412px" height="29.409px" viewBox="0 0 29.412 29.409" enable-background="new 0 0 29.412 29.409" xml:space="preserve">
<path fill="#FFFFFF" d="M29.929,60.21c0,8.125-6.58,14.705-14.701,14.705c-8.122,0-14.71-6.58-14.71-14.705
	c0-8.117,6.588-14.702,14.71-14.702C23.349,45.508,29.929,52.093,29.929,60.21z"/>
<path fill-rule="evenodd" clip-rule="evenodd" fill="#11133B" d="M15.577,65.61c-2.304,0-4.608,0-6.907,0
	c-0.518,0-0.549-0.026-0.549-0.535c0.009-3.025,0.018-6.058,0.023-9.093c0-0.438,0.047-0.491,0.48-0.491c4.644,0,9.274,0,13.899,0
	c0.438,0,0.496,0.053,0.496,0.491c0,3.053,0.009,6.106,0.009,9.159c0,0.426-0.045,0.469-0.469,0.469
	C20.239,65.61,17.903,65.61,15.577,65.61z M10.093,57.976c-0.013,0.161-0.026,0.258-0.026,0.346
	c0.009,2.277,0.014,4.564,0.009,6.851c0,0.29,0.083,0.369,0.368,0.363c3.426-0.003,6.843-0.003,10.265,0
	c0.293,0,0.376-0.078,0.376-0.371c-0.005-2.278,0-4.565,0.009-6.852c0-0.092-0.014-0.192-0.022-0.359
	c-0.148,0.132-0.232,0.21-0.307,0.289c-1.638,1.638-3.267,3.276-4.893,4.915c-0.28,0.28-0.315,0.28-0.592,0.009
	c-1.555-1.567-3.114-3.133-4.674-4.696C10.461,58.321,10.299,58.172,10.093,57.976z M11.25,55.544
	c1.437,1.472,2.887,2.943,4.306,4.39c1.454-1.473,2.9-2.935,4.35-4.39C17.032,55.544,14.105,55.544,11.25,55.544z"/>
<path fill="#FFFFFF" d="M30.524-30.518c0,8.119-6.589,14.706-14.71,14.706c-8.117,0-14.701-6.587-14.701-14.706
	c0-8.125,6.584-14.706,14.701-14.706C23.936-45.224,30.524-38.642,30.524-30.518z"/>
<path fill-rule="evenodd" clip-rule="evenodd" fill="#11133B" d="M14.053-22.933c-0.009-2.076-0.009-4.148-0.018-6.222
	c0-0.46,0-0.46-0.446-0.46c-0.481-0.005-0.973-0.011-1.458,0.001c-0.259,0.005-0.378-0.072-0.373-0.352
	c0.018-0.675,0.018-1.345,0-2.02c0-0.267,0.092-0.363,0.363-0.356c0.632,0.018,1.252,0.006,1.914,0.006
	c0-0.611-0.013-1.189,0.009-1.761c0.022-0.417,0.048-0.839,0.141-1.242c0.315-1.369,1.445-2.311,2.86-2.357
	c0.741-0.024,1.48,0.035,2.221,0.05c0.211,0.002,0.289,0.101,0.28,0.3c-0.008,0.615-0.008,1.227,0,1.846
	c0.009,0.244-0.105,0.318-0.328,0.318c-0.469-0.004-0.929-0.007-1.389,0.017c-0.631,0.031-0.938,0.329-0.969,0.957
	c-0.021,0.603-0.004,1.207-0.004,1.849c0.131,0.009,0.25,0.021,0.368,0.021c0.644,0,1.279,0.007,1.918-0.004
	c0.237-0.002,0.307,0.088,0.276,0.311c-0.1,0.726-0.192,1.448-0.285,2.17c-0.021,0.226-0.166,0.239-0.341,0.239
	c-0.513,0-1.021,0-1.533,0.005c-0.123,0-0.25,0.018-0.403,0.024c0,0.164,0,0.3,0,0.436c0,1.936,0,3.87-0.009,5.807
	c0,0.139-0.009,0.28-0.021,0.416C15.901-22.933,14.973-22.933,14.053-22.933z"/>
<path fill="#FFFFFF" d="M29.412,14.705c0,8.124-6.59,14.704-14.711,14.704C6.584,29.409,0,22.829,0,14.705C0,6.587,6.584,0,14.701,0
	C22.822,0,29.412,6.587,29.412,14.705z"/>
<path fill-rule="evenodd" clip-rule="evenodd" fill="#11133B" d="M13.238,12.239c0.886,0,1.734,0,2.598-0.004
	c0.145-0.005,0.188,0.059,0.188,0.194c-0.009,0.249-0.009,0.5-0.009,0.751c0.026,0.012,0.048,0.022,0.078,0.033
	c0.063-0.059,0.132-0.121,0.202-0.182c1.082-1.073,2.467-1.273,3.829-0.598c0.902,0.444,1.296,1.22,1.489,2.122
	c0.104,0.446,0.126,0.918,0.135,1.38c0.015,1.479,0,2.95,0.015,4.423c0,0.244-0.063,0.332-0.325,0.332
	c-0.836-0.017-1.674-0.004-2.54-0.004c-0.009-0.136-0.018-0.25-0.018-0.368c-0.006-1.484,0.009-2.969-0.018-4.453
	c-0.01-0.341-0.07-0.717-0.229-1.017c-0.319-0.608-1.143-0.749-1.796-0.356c-0.132,0.076-0.245,0.166-0.346,0.26
	c-0.303,0.25-0.451,0.547-0.442,0.967c0.021,1.537,0,3.076,0.009,4.612c0,0.263-0.053,0.373-0.342,0.359
	c-0.749-0.021-1.498-0.017-2.248-0.004c-0.214,0.004-0.298-0.052-0.298-0.285c0.005-2.379,0-4.757,0-7.134
	C13.177,12.938,13.213,12.601,13.238,12.239z"/>
<path fill-rule="evenodd" clip-rule="evenodd" fill="#11133B" d="M8.762,12.239c0.556,0,1.086,0,1.62,0
	c0.294,0,0.587,0.009,0.881-0.009c0.249-0.018,0.342,0.053,0.342,0.327c0,2.058,0.009,4.113,0.013,6.167c0,0.574,0,1.147,0,1.722
	c0.009,0.148-0.004,0.245-0.192,0.241c-0.842-0.004-1.678-0.004-2.511-0.004c-0.048-0.009-0.091-0.014-0.152-0.026
	C8.762,17.859,8.762,15.068,8.762,12.239z"/>
<path fill-rule="evenodd" clip-rule="evenodd" fill="#11133B" d="M8.635,9.591c0-0.785,0.719-1.462,1.563-1.462
	c0.833-0.006,1.56,0.68,1.577,1.467c0,0.825-0.723,1.482-1.613,1.474C9.291,11.061,8.635,10.424,8.635,9.591z"/>
</svg>
