<?xml version="1.0" encoding="utf-8"?>
<!-- Generator: Adobe Illustrator 16.0.0, SVG Export Plug-In . SVG Version: 6.00 Build 0)  -->
<!DOCTYPE svg PUBLIC "-//W3C//DTD SVG 1.1//EN" "http://www.w3.org/Graphics/SVG/1.1/DTD/svg11.dtd">
<svg version="1.1" id="Layer_1" xmlns="http://www.w3.org/2000/svg" xmlns:xlink="http://www.w3.org/1999/xlink" x="0px" y="0px"
	 width="863px" height="767px" viewBox="0 0 863 767" enable-background="new 0 0 863 767" xml:space="preserve">
<g>
	<path fill="#D94F56" d="M1186.964,424.125h27.813v24.934l-1.317,16.352h0.448c2.757-3.334,5.704-6.084,8.841-8.258
		c3.057-2.064,6.654-3.131,10.797-3.205c7.008,0.143,12.033,2.52,15.047,7.117c2.879,4.596,4.278,10.266,4.211,17.002v36.287
		h-27.162v-30.48c0-1.631-0.23-3.219-0.705-4.781c-0.666-1.412-2.092-2.152-4.252-2.227c-2.322,0.074-3.896,0.746-4.726,2.01
		c-0.788,1.412-1.182,3.082-1.182,4.998v30.48h-27.813V424.125z"/>
	<path fill="#31858F" d="M1298.244,453.947c9.981,0,18.348,2.662,25.069,7.986c6.736,5.357,10.172,13.234,10.322,23.629
		c-0.218,9.779-3.803,17.221-10.742,22.328c-6.967,5.139-15.184,7.746-24.622,7.822c-4.55,0-8.95-0.674-13.2-2.01
		c-4.156-1.338-7.932-3.281-11.326-5.813c-3.301-2.574-5.895-5.76-7.782-9.563c-2.037-3.619-3.056-7.875-3.056-12.766
		c0.137-10.395,3.64-18.271,10.512-23.629C1280.169,456.609,1288.452,453.947,1298.244,453.947z M1298.244,476.43
		c-2.472,0-4.454,0.814-5.948,2.451c-1.63,1.631-2.445,3.695-2.445,6.193c0,2.391,0.815,4.332,2.445,5.813
		c1.563,1.563,3.545,2.344,5.948,2.344c2.431,0,4.427-0.781,6.003-2.344c1.521-1.48,2.336-3.422,2.444-5.813
		c0-2.498-0.733-4.563-2.228-6.193C1302.902,477.244,1300.825,476.43,1298.244,476.43z"/>
	<path fill="#31858F" d="M1370.194,464.758h0.625c2.77-3.334,5.609-5.977,8.516-7.932c2.838-1.922,6.531-2.879,11.095-2.879
		c7.048,0.074,12.169,2.41,15.319,7.008c3.015,4.598,4.535,10.268,4.535,17.004v36.395h-27.813v-28.838
		c0-1.955-0.19-3.822-0.584-5.602c-0.367-0.801-0.896-1.508-1.604-2.125c-0.705-0.436-1.765-0.652-3.137-0.652
		c-2.457,0.074-3.951,0.998-4.508,2.777c-0.313,0.76-0.517,1.65-0.598,2.662c-0.082,1.059-0.109,2.037-0.109,2.939v28.838h-27.813
		v-59.049h27.12L1370.194,464.758z"/>
	<path fill="#31858F" d="M1489.976,510.932c-0.217,11.334-4.143,19.59-11.761,24.771c-7.632,5.031-16.718,7.543-27.283,7.543
		c-8.665,0-17.017-1.555-25.069-4.67l-2.853-0.979l6.369-19.943c2.88,2.309,6.179,4.088,9.914,5.352
		c3.626,1.262,7.225,1.895,10.782,1.895c3.953-0.109,7.035-1.373,9.249-3.783c2.255-2.451,3.558-5.52,3.925-9.207l0.529-6.031
		h-0.746c-1.549,3.26-3.926,5.67-7.117,7.227c-3.259,1.738-6.682,2.607-10.267,2.607c-8.081-0.252-14.313-3.605-18.687-10.051
		c-4.428-6.227-6.627-13.199-6.627-20.914c0-7.713,2.199-14.721,6.627-21.023c4.373-6.301,10.66-9.561,18.85-9.777
		c7.537,0.074,13.281,3.334,17.221,9.777h0.746l-0.746-8.42h26.943V510.932z M1447.821,484.83c0,2.396,0.774,4.379,2.35,5.941
		c1.563,1.637,3.626,2.459,6.193,2.459c2.594,0,4.563-0.857,5.907-2.568c1.141-1.486,1.711-3.395,1.711-5.723
		c0-2.363-0.651-4.359-1.942-5.996c-1.344-1.637-3.313-2.492-5.907-2.568c-2.485,0-4.44,0.822-5.853,2.459
		C1448.636,480.471,1447.821,482.467,1447.821,484.83z"/>
	<path fill="#D94F56" d="M1574.569,464.648h0.842c1.848-3.518,4.551-6.191,8.121-8.039c3.464-1.771,7.158-2.662,11.068-2.662
		c8.067,0.217,14.07,3.402,17.995,9.561c3.897,6.084,5.853,13.018,5.853,20.807c0,7.354-2.091,14.287-6.246,20.805
		c-2.064,3.043-4.658,5.561-7.769,7.551c-3.124,1.955-6.722,2.967-10.81,3.043c-3.342-0.076-6.628-0.979-9.887-2.717
		c-3.26-1.629-5.786-3.871-7.551-6.736h-0.815l1.358,9.453v22.979h-27.813v-83.387h26.495L1574.569,464.648z M1583.085,476.375
		c-2.391,0.076-4.237,0.891-5.568,2.459c-1.412,1.637-2.105,3.6-2.105,5.887c0,2.33,0.707,4.305,2.119,5.941
		c1.344,1.711,3.219,2.568,5.623,2.568c2.457-0.076,4.386-1.039,5.799-2.895c1.412-1.777,2.118-3.727,2.118-5.832
		c-0.067-2.146-0.788-4.033-2.132-5.67C1587.513,477.266,1585.556,476.451,1583.085,476.375z"/>
	<path fill="#31858F" d="M1670.056,506.586h-0.652c-2.458,2.791-5.052,4.963-7.768,6.52c-2.825,1.738-6.248,2.607-10.268,2.607
		c-7.999-0.252-14.164-3.605-18.47-10.051c-4.278-6.227-6.409-13.092-6.409-20.588c0-7.789,2.199-14.863,6.627-21.24
		c4.373-6.375,10.742-9.67,19.066-9.887c7.172-0.074,12.916,2.717,17.221,8.365h0.652l-0.91-7.008h27.311v59.049h-27.311
		L1670.056,506.586z M1654.085,484.531c0,2.404,0.624,4.428,1.887,6.07c1.305,1.785,3.301,2.682,5.99,2.682
		c2.906,0,4.997-0.93,6.26-2.791c1.223-1.785,1.834-3.85,1.834-6.178c0-2.377-0.748-4.307-2.241-5.799
		c-1.372-1.426-3.327-2.141-5.853-2.141c-2.418,0.076-4.306,0.863-5.637,2.357C1654.831,480.301,1654.085,482.229,1654.085,484.531z
		"/>
	<path fill="#31858F" d="M1734.753,464.758h0.625c2.771-3.334,5.609-5.977,8.516-7.932c2.838-1.922,6.531-2.879,11.096-2.879
		c7.047,0.074,12.168,2.41,15.318,7.008c3.016,4.598,4.535,10.268,4.535,17.004v36.395h-27.813v-28.838
		c0-1.955-0.189-3.822-0.584-5.602c-0.367-0.801-0.896-1.508-1.602-2.125c-0.707-0.436-1.766-0.652-3.139-0.652
		c-2.457,0.074-3.951,0.998-4.508,2.777c-0.313,0.76-0.516,1.65-0.598,2.662c-0.082,1.059-0.109,2.037-0.109,2.939v28.838h-27.813
		v-59.049h27.121L1734.753,464.758z"/>
</g>
<g>
	<path fill="#31858F" d="M1183.487,616.895c0.109,2.594-0.135,5.053-0.719,7.389c-0.57,2.336-1.766,4.529-3.545,6.572
		c-4.225,4.434-9.371,6.689-15.441,6.764c-5.785-0.109-10.66-2.207-14.627-6.295c-4.088-4.047-6.179-9.023-6.246-14.932
		c0.067-6.125,2.145-11.225,6.246-15.313c3.993-4.088,8.977-6.18,14.953-6.268c7.414,0.164,13.295,3.395,17.6,9.697l-2.091,1.689
		c-3.735-5.818-8.95-8.779-15.659-8.887c-5.078,0.066-9.356,1.941-12.847,5.615c-3.626,3.652-5.474,8.086-5.54,13.289
		c0.066,5.275,1.873,9.695,5.432,13.26c3.463,3.695,7.781,5.576,12.942,5.645c4.481-0.068,8.46-1.609,11.95-4.619
		c3.328-2.953,4.971-6.654,4.93-11.107h-14.518v-2.5H1183.487z"/>
	<path fill="#31858F" d="M1222.45,637.076h-2.974l-13.255-19.855h-1.29v19.855h-2.661v-41.938h5.078
		c1.697,0,3.328,0.074,4.889,0.217c1.576,0.219,3.057,0.85,4.428,1.902c2.771,2.26,4.129,5.262,4.102,8.99
		c-0.041,3.639-1.113,6.389-3.246,8.256c-2.159,1.848-4.957,2.75-8.406,2.717L1222.45,637.076z M1208.19,614.723
		c1.332,0.041,2.58-0.082,3.748-0.354c1.182-0.217,2.296-0.748,3.314-1.604c0.978-0.848,1.711-1.873,2.199-3.068
		c0.436-1.141,0.652-2.33,0.652-3.559c0-1.596-0.34-3.068-1.018-4.428c-0.748-1.377-1.834-2.416-3.273-3.123
		c-1.06-0.529-2.214-0.828-3.477-0.896c-1.291-0.041-2.526-0.055-3.734-0.055h-1.671v17.086H1208.19z"/>
	<path fill="#31858F" d="M1244.56,623.277l-5.418,13.799h-2.662l17.029-42.834l16.977,42.834h-2.635l-5.445-13.799H1244.56z
		 M1253.509,600.904l-7.971,19.875h15.889L1253.509,600.904z"/>
	<path fill="#31858F" d="M1289.987,637.076h-2.662v-41.938h7.184c1.631,0,3.191,0.129,4.713,0.381
		c1.48,0.305,2.852,0.99,4.115,2.064c2.458,2.295,3.68,5.166,3.68,8.609c0,1.521-0.271,3.021-0.787,4.508
		c-0.584,1.48-1.453,2.752-2.607,3.803c-1.25,1.066-2.648,1.779-4.183,2.146c-1.603,0.381-3.232,0.551-4.876,0.516h-4.576V637.076z
		 M1294.646,614.668c1.33,0,2.58-0.15,3.775-0.463c1.168-0.285,2.268-0.895,3.313-1.818c1.752-1.697,2.621-3.803,2.621-6.303
		c0-1.357-0.231-2.635-0.706-3.828c-0.516-1.182-1.304-2.16-2.35-2.934c-1.032-0.836-2.146-1.346-3.327-1.521
		c-1.235-0.109-2.485-0.164-3.749-0.164h-4.236v17.031H1294.646z"/>
	<path fill="#31858F" d="M1351.983,612.93v-17.791h2.661v41.938h-2.661v-21.648h-24.609v21.648h-2.661v-41.938h2.661v17.791
		H1351.983z"/>
	<path fill="#31858F" d="M1378.315,637.076h-2.662v-41.938h2.662V637.076z"/>
	<path fill="#31858F" d="M1430.818,603.871c-1.63-2.018-3.667-3.619-6.098-4.807c-2.444-1.135-4.956-1.719-7.551-1.752
		c-5.161,0.066-9.479,1.969-12.97,5.695c-3.599,3.674-5.432,8.17-5.5,13.48c0.027,5.023,1.848,9.316,5.445,12.881
		c3.668,3.727,8,5.643,13.024,5.752c2.458,0,4.957-0.598,7.497-1.807c2.512-1.154,4.563-2.67,6.151-4.537v3.646
		c-3.938,3.389-8.446,5.121-13.554,5.195c-5.826-0.074-10.797-2.188-14.871-6.35c-4.168-4.012-6.287-9.01-6.355-14.986
		c0.068-6.084,2.174-11.156,6.302-15.203c4.048-4.088,9.045-6.18,14.979-6.268c5.133,0.035,9.643,1.84,13.499,5.412V603.871z"/>
	<path fill="#31858F" d="M1479.058,595.139h7.333c2.946-0.033,5.677,0.299,8.175,1.006c2.445,0.74,4.754,2.166,6.954,4.264
		c4.278,4.313,6.437,9.561,6.491,15.754c-0.055,5.975-2.146,11.088-6.273,15.346c-2.201,2.193-4.537,3.674-7.021,4.455
		c-2.526,0.74-5.311,1.113-8.325,1.113h-7.333V595.139z M1486.391,634.576c2.688,0.041,5.147-0.313,7.36-1.059
		c2.268-0.74,4.332-2.078,6.221-4.02c3.558-3.729,5.35-8.176,5.377-13.336c-0.027-5.521-1.982-10.18-5.854-13.961
		c-1.9-1.814-3.924-3.035-6.057-3.668c-2.186-0.598-4.535-0.896-7.048-0.896h-4.672v36.939H1486.391z"/>
	<path fill="#31858F" d="M1529.102,597.637v15.238h16.392v2.498h-16.392v19.203h16.813v2.5h-19.475v-41.938h19.475v2.498H1529.102z"
		/>
	<path fill="#31858F" d="M1584.579,602.229c-1.766-3.205-4.51-4.85-8.217-4.916c-2.187,0.033-3.979,0.807-5.364,2.322
		c-1.453,1.473-2.2,3.348-2.255,5.615c0,1.086,0.258,2.01,0.762,2.783c0.434,0.814,1.018,1.514,1.738,2.111
		c0.719,0.57,1.507,1.088,2.362,1.535c0.829,0.488,1.644,0.951,2.472,1.379l7.754,4.162c3.084,1.875,4.632,4.639,4.632,8.299
		c-0.067,3.51-1.372,6.383-3.884,8.615c-2.5,2.289-5.46,3.451-8.869,3.484c-5.88-0.143-9.873-3.131-12.005-8.949l2.255-1.053
		c0.869,2.248,2.118,4.061,3.762,5.426c1.643,1.385,3.652,2.078,6.057,2.078c2.811-0.035,5.16-0.986,7.049-2.859
		c1.955-1.854,2.947-4.176,2.974-6.967c0-1.223-0.258-2.262-0.761-3.104c-0.502-0.883-1.168-1.637-1.996-2.268
		c-0.828-0.666-1.697-1.236-2.635-1.705c-0.924-0.482-1.86-0.951-2.811-1.398l-7.307-3.973c-2.771-1.691-4.17-4.176-4.211-7.449
		c0-3.184,0.992-5.738,2.975-7.645c1.902-1.922,4.373-2.906,7.43-2.941c4.386,0.088,7.686,2.051,9.913,5.873L1584.579,602.229z"/>
	<path fill="#31858F" d="M1609.798,637.076h-2.662v-41.938h2.662V637.076z"/>
	<path fill="#31858F" d="M1668.1,616.895c0.108,2.594-0.136,5.053-0.72,7.389c-0.57,2.336-1.766,4.529-3.545,6.572
		c-4.223,4.434-9.37,6.689-15.441,6.764c-5.785-0.109-10.66-2.207-14.625-6.295c-4.088-4.047-6.18-9.023-6.248-14.932
		c0.068-6.125,2.146-11.225,6.248-15.313c3.992-4.088,8.977-6.18,14.951-6.268c7.416,0.164,13.296,3.395,17.602,9.697l-2.092,1.689
		c-3.734-5.818-8.949-8.779-15.658-8.887c-5.08,0.066-9.357,1.941-12.848,5.615c-3.627,3.652-5.473,8.086-5.541,13.289
		c0.068,5.275,1.874,9.695,5.432,13.26c3.463,3.695,7.782,5.576,12.943,5.645c4.48-0.068,8.461-1.609,11.951-4.619
		c3.326-2.953,4.97-6.654,4.93-11.107h-14.518v-2.5H1668.1z"/>
	<path fill="#31858F" d="M1723.671,638.461l-34.113-37.4v36.016h-2.662v-42.264l34.182,36.961l-0.066-36.635h2.66V638.461z"/>
	<path fill="#31858F" d="M1747.56,597.637v15.238h16.393v2.498h-16.393v19.203h16.813v2.5h-19.475v-41.938h19.475v2.498H1747.56z"/>
	<path fill="#31858F" d="M1804.396,637.076h-2.975l-13.254-19.855h-1.291v19.855h-2.662v-41.938h5.08
		c1.697,0,3.326,0.074,4.889,0.217c1.574,0.219,3.055,0.85,4.428,1.902c2.77,2.26,4.127,5.262,4.102,8.99
		c-0.041,3.639-1.115,6.389-3.246,8.256c-2.16,1.848-4.957,2.75-8.406,2.717L1804.396,637.076z M1790.136,614.723
		c1.33,0.041,2.58-0.082,3.748-0.354c1.182-0.217,2.295-0.748,3.313-1.604c0.979-0.848,1.713-1.873,2.201-3.068
		c0.434-1.141,0.652-2.33,0.652-3.559c0-1.596-0.34-3.068-1.02-4.428c-0.746-1.377-1.834-2.416-3.273-3.123
		c-1.059-0.529-2.213-0.828-3.477-0.896c-1.289-0.041-2.525-0.055-3.734-0.055h-1.67v17.086H1790.136z"/>
</g>
<g>
	<path fill="#31858F" d="M1382.349,94.175c0,0,25.79-23.202,42.223-9.024c0,0,17.723,11.924,3.219,36.729
		c0,0-5.297,7.211-12.412,17.709c-4.537,6.702-9.833,14.762-14.98,23.128c-15.509,25.239-29.578,53.345-17.383,56.136
		c0,0,8.475,5.208,22.53-19.129c0,0,24.649-33.768,50.099-30.868c0,0,7.131,1.324,13.717,8.48
		c4.237,4.611,4.794,12.909,3.559,23.875c-0.055,0.407-0.218,0.809-0.34,1.209c-5.201,17.56-11.204,35.133-6.111,43.363
		c2.458,3.999,8.719,5.9,16.731,4.318c0,0,8.148-3.904,15.672-15.924c2.974-4.787,10.063-17.063,11.774-19.678
		c3.422-5.208,6.6-9.976,12.006-15.815c10.797-11.679,24.064-21.634,26.277-23.005c6.561-4.054,41.231-20.297,59.593,11.598
		c0,0,9.669,15.876,5.433,34.82c-2.282,10.199-9.182,21.98-21.213,28.642c0,0-17.723,8.061-29.973-3.856
		c0,0,6.478,1.405,14.341,0.048c2.812-0.489,6.587-1.678,9.574-2.947c6.899-2.913,12.032-8.475,15.062-14.823
		c0,0,9.397-18.775-2.771-36.029c-2.43-3.47-8.664-8.93-10.742-10.043c-1.887-0.998-24.16-11.272-39.953,16.433
		c0,0-35.433,53.48-13.201,118.559c0,0,9.67,34.142-16.744,40.912c0,0-26.279,6.736-34.496-25.776c0,0-10.512-32.39,3.545-71.189
		c0,0-18.021,6.457-27.826-3.83c-1.766-1.84-2.689-3.748-3.694-6.776c-2.132-6.424-0.747-15.91-0.747-15.91l1.67-9.167
		c0,0,5.881-20.737,2.771-32.172c-0.598-2.187-0.734-5.235-3.586-7.681c-1.834-1.562-6.695-2.037-10.811-0.638
		c-5.785,1.955-17.057,11.326-31.547,38.8c0,0-23.346,38.087-46.338,38.936c-0.434,0.021-0.869,0.041-1.29,0.041
		c-20.941,0-36.192-17.961-39.995-41.231C1322.173,199.121,1322.132,144.438,1382.349,94.175z"/>
</g>
<rect x="1155.659" y="-48.867" fill="none" width="148" height="17.5"/>
<text transform="matrix(1 0 0 1 1155.6602 -41.1714)" fill="#FFFFFF" font-family="'Avenir-Medium'" font-size="8" letter-spacing="2">Graphic Designer </text>
<g>
	<path fill="#31858F" d="M-1036.273,92.773c0,0,31.218-28.102,51.128-10.928c0,0,21.466,14.438,3.891,44.494
		c0,0-6.402,8.736-15.017,21.454c-5.517,8.125-11.936,17.881-18.162,28.02c-18.786,30.579-35.831,64.628-21.058,67.996
		c0,0,10.268,6.308,27.284-23.176c0,0,29.852-40.901,60.696-37.39c0,0,8.626,1.607,16.617,10.282
		c5.141,5.573,5.796,15.628,4.298,28.925c-0.062,0.489-0.258,0.965-0.401,1.455c-6.308,21.27-13.56,42.555-7.402,52.53
		c2.995,4.844,10.58,7.144,20.285,5.239c0,0,9.866-4.735,18.969-19.304c3.619-5.79,12.193-20.665,14.275-23.829
		c4.13-6.315,7.982-12.078,14.534-19.161c13.077-14.147,29.149-26.21,31.83-27.865c7.947-4.912,49.958-24.589,72.207,14.047
		c0,0,11.726,19.227,6.58,42.179c-2.77,12.363-11.124,26.638-25.707,34.701c0,0-21.458,9.764-36.294-4.674
		c0,0,7.83,1.708,17.346,0.054c3.42-0.598,7.986-2.027,11.606-3.565c8.357-3.531,14.567-10.261,18.271-17.957
		c0,0,11.355-22.747-3.355-43.65c-2.96-4.204-10.506-10.818-13.039-12.166c-2.277-1.212-29.269-13.662-48.389,19.909
		c0,0-42.929,64.792-16.005,143.626c0,0,11.711,41.363-20.29,49.563c0,0-31.825,8.159-41.765-31.224c0,0-12.757-39.242,4.295-86.251
		c0,0-21.849,7.831-33.718-4.635c-2.143-2.232-3.267-4.545-4.476-8.206c-2.584-7.777-0.905-19.269-0.905-19.269l2.014-11.105
		c0,0,7.125-25.134,3.367-38.988c-0.727-2.646-0.891-6.327-4.354-9.294c-2.206-1.893-8.104-2.463-13.092-0.777
		c-7.008,2.37-20.658,13.719-38.206,47.005c0,0-28.285,46.14-56.149,47.167c-0.53,0.02-1.041,0.054-1.558,0.054
		c-25.367,0-43.832-21.752-48.453-49.957C-1109.202,219.904-1109.255,153.658-1036.273,92.773z"/>
</g>
<g>
	<path fill="#FFFFFF" d="M-569.797,164.769c0,0,31.218-28.102,51.128-10.928c0,0,21.466,14.438,3.891,44.494
		c0,0-6.402,8.736-15.017,21.454c-5.517,8.125-11.936,17.881-18.162,28.02c-18.786,30.579-35.831,64.628-21.058,67.996
		c0,0,10.268,6.308,27.284-23.176c0,0,29.852-40.901,60.696-37.39c0,0,8.626,1.607,16.617,10.282
		c5.141,5.573,5.796,15.628,4.298,28.925c-0.062,0.489-0.258,0.965-0.401,1.455c-6.308,21.27-13.56,42.555-7.402,52.53
		c2.995,4.844,10.58,7.144,20.285,5.239c0,0,9.866-4.735,18.969-19.304c3.619-5.79,12.193-20.665,14.275-23.829
		c4.13-6.315,7.982-12.078,14.534-19.161c13.077-14.147,29.149-26.21,31.83-27.865c7.947-4.912,49.958-24.589,72.207,14.047
		c0,0,11.726,19.227,6.58,42.179c-2.77,12.363-11.124,26.638-25.707,34.701c0,0-21.458,9.764-36.294-4.674
		c0,0,7.83,1.708,17.346,0.054c3.42-0.598,7.986-2.027,11.606-3.565c8.357-3.531,14.567-10.261,18.271-17.957
		c0,0,11.355-22.747-3.355-43.65c-2.96-4.204-10.506-10.818-13.039-12.166c-2.277-1.212-29.269-13.662-48.389,19.909
		c0,0-42.929,64.792-16.005,143.626c0,0,11.711,41.363-20.29,49.563c0,0-31.825,8.159-41.765-31.225c0,0-12.757-39.241,4.295-86.251
		c0,0-21.849,7.831-33.718-4.635c-2.143-2.232-3.267-4.545-4.476-8.206c-2.584-7.777-0.905-19.269-0.905-19.269l2.014-11.105
		c0,0,7.125-25.134,3.367-38.988c-0.727-2.646-0.891-6.327-4.354-9.294c-2.206-1.893-8.104-2.463-13.092-0.777
		c-7.008,2.37-20.658,13.719-38.206,47.005c0,0-28.285,46.14-56.149,47.167c-0.53,0.02-1.041,0.054-1.558,0.054
		c-25.367,0-43.832-21.752-48.453-49.957C-642.725,291.9-642.779,225.654-569.797,164.769z"/>
</g>
<rect x="1153.582" y="-81.035" fill="none" width="120.139" height="31.757"/>
<text transform="matrix(1 0 0 1 1153.582 -57.9473)" fill="#FFFFFF" font-family="'Avenir-Medium'" font-size="24">hong pan</text>
<g>
	<g>
		<path fill="#FFFFFF" d="M353.865,95.76c0,0,30.667-27.603,50.217-10.74c0,0,21.085,14.19,3.827,43.708
			c-14.677,20.047-85.723,100.585-59.125,118.363c0,0,14.41,2.292,32.654-25.743c41.171-63.27,91.812-35.765,79.758,3.221
			c-6.186,20.89-13.317,41.792-7.273,51.589c2.948,4.769,10.404,7.026,19.924,5.15c23.752-11.406,25.072-58.435,74.272-88.919
			c68.505-42.346,111.81,58.855,56.069,89.678c0,0-21.079,9.587-35.648-4.597c13.256,2.899,36.585-1.076,46.388-21.083
			c20.525-41.892-34.634-86.208-63.646-35.261c0,0-42.159,63.628-15.71,141.067c0,0,11.498,40.628-19.938,48.683
			c0,0-31.254,8.005-41.021-30.669c0,0-12.523-38.543,4.215-84.721c-24.625,8.821-42.641-2.645-38.389-31.535l1.964-10.909
			c16.06-56.616-13.244-74.334-51.356-2.022c-10.982,17.917-22.251,46.998-56.687,46.386c-24.917,0-47.077-22.611-51.601-50.314
			C278.208,219.396,282.166,155.571,353.865,95.76z"/>
	</g>
	<g>
		<path fill="#FFFFFF" d="M132.078,665.396v19.11c-0.945,0.585-2.03,1.091-3.228,1.531c-1.213,0.44-2.464,0.813-3.752,1.117
			c-1.295,0.303-2.619,0.534-3.937,0.694c-1.339,0.146-2.59,0.216-3.75,0.216c-3.291,0-6.231-0.545-8.79-1.654
			c-2.575-1.078-4.74-2.56-6.526-4.43c-1.766-1.857-3.112-4.017-4.048-6.479c-0.924-2.473-1.385-5.066-1.385-7.808
			c0-2.889,0.484-5.566,1.503-8.055c1.006-2.475,2.382-4.631,4.167-6.457c1.758-1.817,3.885-3.259,6.371-4.285
			c2.477-1.058,5.195-1.571,8.15-1.571c3.577,0,6.495,0.446,8.765,1.343c2.256,0.891,4.153,2.126,5.695,3.695l-3.727,3.997
			c-1.603-1.543-3.298-2.598-5.1-3.209c-1.776-0.601-3.655-0.896-5.633-0.896c-2.226,0-4.234,0.412-6.021,1.23
			c-1.786,0.817-3.319,1.924-4.591,3.313c-1.282,1.39-2.271,3.027-2.962,4.904c-0.692,1.874-1.042,3.871-1.042,5.99
			c0,2.182,0.386,4.227,1.151,6.104c0.768,1.882,1.816,3.515,3.181,4.903c1.338,1.384,2.932,2.473,4.762,3.261
			c1.815,0.779,3.817,1.179,5.96,1.179c1.868,0,3.633-0.175,5.29-0.524c1.662-0.349,3.075-0.846,4.245-1.51V670.32h-8.604v-4.925
			H132.078z"/>
		<path fill="#FFFFFF" d="M156.825,661.125h4.926v3.999h0.111c0.335-0.687,0.767-1.339,1.308-1.89
			c0.545-0.563,1.164-1.048,1.84-1.456c0.67-0.396,1.417-0.725,2.218-0.946c0.803-0.253,1.615-0.364,2.418-0.364
			c0.798,0,1.525,0.104,2.179,0.323l-0.215,5.315c-0.409-0.103-0.804-0.208-1.212-0.271c-0.394-0.083-0.796-0.114-1.19-0.114
			c-2.412,0-4.266,0.681-5.538,2.031c-1.282,1.347-1.92,3.445-1.92,6.291v13.037h-4.926V661.125z"/>
		<path fill="#FFFFFF" d="M193.625,664.301c1.376-1.278,2.978-2.24,4.809-2.87c1.83-0.643,3.646-0.963,5.476-0.963
			c1.898,0,3.537,0.236,4.891,0.701c1.376,0.49,2.507,1.13,3.379,1.932c0.878,0.806,1.525,1.727,1.943,2.755
			c0.416,1.042,0.632,2.135,0.632,3.252v13.262c0,0.918,0.013,1.751,0.06,2.517c0.029,0.754,0.09,1.499,0.156,2.194h-4.384
			c-0.11-1.322-0.154-2.634-0.154-3.94h-0.113c-1.102,1.67-2.396,2.854-3.885,3.556c-1.504,0.69-3.229,1.038-5.21,1.038
			c-1.198,0-2.351-0.173-3.445-0.496c-1.095-0.328-2.056-0.827-2.863-1.479c-0.83-0.654-1.484-1.468-1.96-2.441
			c-0.476-0.963-0.714-2.079-0.714-3.368c0-1.667,0.378-3.081,1.123-4.212c0.753-1.132,1.786-2.051,3.081-2.768
			c1.288-0.698,2.799-1.223,4.54-1.532c1.728-0.306,3.58-0.452,5.56-0.452h3.608v-1.109c0-0.657-0.134-1.311-0.378-1.969
			c-0.262-0.651-0.646-1.24-1.153-1.774c-0.505-0.521-1.154-0.95-1.905-1.261c-0.781-0.297-1.696-0.459-2.747-0.459
			c-0.955,0-1.778,0.093-2.5,0.265c-0.708,0.191-1.354,0.413-1.944,0.695c-0.573,0.266-1.1,0.585-1.593,0.947
			c-0.461,0.367-0.914,0.711-1.355,1.041L193.625,664.301z M207.526,674.603c-1.168,0-2.375,0.066-3.58,0.177
			c-1.234,0.131-2.353,0.372-3.349,0.744c-1.004,0.36-1.824,0.868-2.456,1.525c-0.648,0.653-0.96,1.502-0.96,2.527
			c0,1.492,0.492,2.567,1.496,3.224c1.011,0.664,2.365,0.991,4.077,0.991c1.356,0,2.509-0.22,3.461-0.678
			c0.946-0.463,1.705-1.063,2.293-1.783c0.59-0.73,1.002-1.553,1.264-2.442c0.245-0.888,0.378-1.779,0.378-2.65v-1.635H207.526z"/>
		<path fill="#FFFFFF" d="M238.343,661.125h4.942v3.723h0.096c0.953-1.389,2.264-2.459,3.923-3.245
			c1.661-0.746,3.365-1.135,5.114-1.135c2.017,0,3.831,0.344,5.449,1.043c1.621,0.696,3.013,1.658,4.166,2.901
			c1.153,1.245,2.032,2.688,2.656,4.362c0.618,1.646,0.923,3.431,0.923,5.327c0,1.933-0.306,3.728-0.923,5.39
			c-0.625,1.674-1.503,3.099-2.656,4.321c-1.153,1.233-2.545,2.182-4.166,2.883c-1.618,0.69-3.432,1.038-5.449,1.038
			c-1.854,0-3.609-0.394-5.247-1.174c-1.637-0.79-2.903-1.858-3.79-3.207h-0.096v19.164h-4.942V661.125z M251.825,665.066
			c-1.327,0-2.495,0.226-3.56,0.679c-1.065,0.459-1.959,1.086-2.688,1.86c-0.737,0.796-1.302,1.743-1.697,2.848
			c-0.409,1.116-0.595,2.336-0.595,3.648s0.186,2.532,0.595,3.641c0.395,1.114,0.96,2.059,1.697,2.84
			c0.729,0.789,1.623,1.414,2.688,1.874c1.064,0.457,2.233,0.684,3.56,0.684c1.307,0,2.49-0.227,3.555-0.684
			c1.048-0.46,1.957-1.085,2.686-1.874c0.722-0.781,1.287-1.726,1.697-2.84c0.393-1.108,0.596-2.328,0.596-3.641
			s-0.203-2.532-0.596-3.648c-0.41-1.104-0.975-2.052-1.697-2.848c-0.729-0.774-1.638-1.401-2.686-1.86
			C254.315,665.292,253.132,665.066,251.825,665.066z"/>
		<path fill="#FFFFFF" d="M288.236,645.687h4.928v19.438h0.096c0.626-1.388,1.705-2.504,3.23-3.377
			c1.542-0.849,3.314-1.279,5.319-1.279c1.244,0,2.441,0.195,3.582,0.583c1.153,0.38,2.158,0.966,3.013,1.77
			c0.851,0.804,1.542,1.838,2.055,3.104c0.515,1.252,0.759,2.739,0.759,4.452v16.703h-4.926v-15.334
			c0-1.201-0.156-2.229-0.484-3.082c-0.33-0.871-0.783-1.564-1.317-2.088c-0.56-0.544-1.176-0.919-1.89-1.152
			c-0.708-0.242-1.445-0.357-2.21-0.357c-1.028,0-1.964,0.175-2.85,0.501c-0.879,0.325-1.645,0.847-2.299,1.55
			c-0.656,0.72-1.17,1.617-1.541,2.71c-0.357,1.105-0.536,2.397-0.536,3.887v13.366h-4.928V645.687z"/>
		<path fill="#FFFFFF" d="M334.341,651.821c0-1,0.349-1.831,1.058-2.558c0.713-0.712,1.561-1.061,2.544-1.061
			c0.989,0,1.83,0.349,2.554,1.061c0.713,0.727,1.056,1.558,1.056,2.558c0,0.987-0.342,1.83-1.056,2.533
			c-0.724,0.724-1.564,1.065-2.554,1.065c-0.983,0-1.831-0.342-2.544-1.065C334.69,653.651,334.341,652.809,334.341,651.821z
			 M335.495,661.125h4.91v25.955h-4.91V661.125z"/>
		<path fill="#FFFFFF" d="M383.219,668.014c-0.913-0.946-1.873-1.658-2.878-2.158c-0.998-0.483-2.188-0.731-3.579-0.731
			c-1.347,0-2.516,0.248-3.521,0.731c-1.012,0.5-1.854,1.175-2.522,2.032c-0.678,0.847-1.198,1.847-1.535,2.948
			c-0.347,1.121-0.521,2.268-0.521,3.48c0,1.207,0.202,2.354,0.598,3.426c0.408,1.076,0.959,2.008,1.701,2.814
			c0.732,0.812,1.609,1.439,2.622,1.899c1.036,0.457,2.174,0.684,3.445,0.684c1.393,0,2.583-0.252,3.572-0.745
			c0.983-0.485,1.898-1.209,2.733-2.161l3.511,3.507c-1.289,1.423-2.768,2.449-4.472,3.058c-1.69,0.635-3.498,0.936-5.389,0.936
			c-2.009,0-3.847-0.34-5.499-0.993c-1.667-0.653-3.107-1.57-4.303-2.77c-1.205-1.171-2.135-2.6-2.797-4.26
			c-0.656-1.657-0.983-3.499-0.983-5.507c0-1.999,0.327-3.854,0.983-5.52c0.662-1.69,1.592-3.117,2.767-4.332
			c1.192-1.198,2.604-2.146,4.281-2.819c1.66-0.669,3.511-1.021,5.55-1.021c1.891,0,3.707,0.353,5.448,1.021
			c1.726,0.674,3.229,1.718,4.52,3.095L383.219,668.014z"/>
		<path fill="#FFFFFF" d="M439.512,648.313h13.522c2.739,0,5.136,0.312,7.205,0.933c2.054,0.619,3.839,1.45,5.364,2.491
			c1.511,1.042,2.762,2.226,3.773,3.581s1.795,2.744,2.383,4.159c0.586,1.431,1.005,2.845,1.266,4.283
			c0.244,1.409,0.37,2.731,0.37,3.934c0,2.488-0.452,4.883-1.369,7.196c-0.901,2.331-2.256,4.383-4.041,6.193
			c-1.793,1.805-4.011,3.252-6.652,4.345c-2.656,1.108-5.7,1.652-9.168,1.652h-12.653V648.313z M444.767,682.144h6.63
			c2.22,0,4.326-0.293,6.319-0.906c1.985-0.593,3.727-1.502,5.217-2.704c1.504-1.203,2.692-2.71,3.57-4.514
			c0.874-1.802,1.311-3.912,1.311-6.326c0-1.234-0.194-2.693-0.597-4.354c-0.394-1.658-1.165-3.23-2.266-4.732
			c-1.127-1.499-2.672-2.766-4.639-3.813c-1.974-1.031-4.524-1.553-7.666-1.553h-7.88V682.144z"/>
		<path fill="#FFFFFF" d="M499.848,675.909c0,1.132,0.236,2.16,0.734,3.097c0.498,0.925,1.14,1.712,1.943,2.383
			c0.802,0.652,1.741,1.157,2.797,1.524c1.05,0.374,2.15,0.551,3.275,0.551c1.539,0,2.869-0.351,4-1.069
			c1.144-0.719,2.17-1.653,3.129-2.818l3.714,2.852c-2.748,3.536-6.558,5.306-11.496,5.306c-2.039,0-3.894-0.348-5.554-1.038
			c-1.667-0.701-3.066-1.649-4.212-2.883c-1.155-1.223-2.037-2.647-2.657-4.321c-0.619-1.662-0.94-3.457-0.94-5.39
			c0-1.944,0.338-3.725,1.022-5.395c0.678-1.666,1.602-3.097,2.784-4.329c1.19-1.224,2.61-2.171,4.249-2.867
			c1.635-0.699,3.421-1.043,5.363-1.043c2.293,0,4.243,0.396,5.83,1.2c1.591,0.801,2.901,1.857,3.921,3.159
			c1.013,1.29,1.757,2.748,2.211,4.374c0.453,1.623,0.693,3.27,0.693,4.96v1.748H499.848z M515.384,671.968
			c-0.029-1.114-0.208-2.101-0.513-3.017c-0.306-0.9-0.774-1.702-1.393-2.375c-0.624-0.684-1.398-1.204-2.33-1.592
			c-0.938-0.393-2.009-0.572-3.259-0.572c-1.196,0-2.306,0.221-3.312,0.678c-1.005,0.463-1.854,1.061-2.537,1.787
			c-0.693,0.729-1.235,1.546-1.613,2.44c-0.39,0.884-0.58,1.777-0.58,2.65H515.384z"/>
		<path fill="#FFFFFF" d="M556.792,667.642c-0.588-0.737-1.308-1.345-2.167-1.836c-0.862-0.492-1.912-0.739-3.154-0.739
			c-1.161,0-2.18,0.247-3.038,0.739c-0.854,0.491-1.286,1.209-1.286,2.16c0,0.769,0.247,1.396,0.745,1.861
			c0.49,0.48,1.073,0.865,1.749,1.157c0.678,0.298,1.405,0.504,2.158,0.652c0.767,0.151,1.42,0.274,1.978,0.374
			c1.049,0.26,2.056,0.584,2.985,0.939c0.924,0.363,1.727,0.847,2.403,1.417c0.679,0.593,1.207,1.304,1.593,2.136
			c0.371,0.842,0.574,1.868,0.574,3.073c0,1.458-0.313,2.703-0.939,3.74c-0.614,1.058-1.418,1.897-2.401,2.563
			c-0.983,0.657-2.115,1.122-3.366,1.417c-1.257,0.29-2.529,0.438-3.81,0.438c-2.159,0-4.039-0.34-5.671-0.993
			c-1.615-0.653-3.063-1.854-4.345-3.601l3.713-3.077c0.802,0.801,1.709,1.525,2.694,2.137c0.99,0.629,2.186,0.94,3.608,0.94
			c0.624,0,1.259-0.069,1.891-0.195c0.634-0.124,1.206-0.329,1.705-0.611c0.483-0.267,0.895-0.621,1.204-1.037
			c0.308-0.417,0.457-0.906,0.457-1.449c0-0.729-0.226-1.33-0.693-1.805c-0.45-0.475-0.991-0.846-1.624-1.119
			c-0.647-0.285-1.324-0.49-2.031-0.654c-0.716-0.167-1.348-0.313-1.889-0.418c-1.06-0.262-2.063-0.547-3.016-0.88
			c-0.951-0.324-1.785-0.767-2.516-1.308c-0.738-0.56-1.309-1.243-1.756-2.078c-0.438-0.842-0.654-1.892-0.654-3.129
			c0-1.346,0.284-2.519,0.849-3.521c0.567-1.003,1.312-1.834,2.247-2.503c0.937-0.653,1.987-1.152,3.177-1.48
			c1.184-0.329,2.383-0.483,3.587-0.483c1.748,0,3.422,0.323,5.039,0.983c1.609,0.652,2.88,1.751,3.833,3.291L556.792,667.642z"/>
		<path fill="#FFFFFF" d="M582.951,651.821c0-1,0.364-1.831,1.073-2.558c0.713-0.712,1.553-1.061,2.552-1.061
			c0.983,0,1.83,0.349,2.529,1.061c0.723,0.727,1.071,1.558,1.071,2.558c0,0.987-0.349,1.83-1.071,2.533
			c-0.699,0.724-1.546,1.065-2.529,1.065c-0.999,0-1.839-0.342-2.552-1.065C583.315,653.651,582.951,652.809,582.951,651.821z
			 M584.104,661.125h4.919v25.955h-4.919V661.125z"/>
		<path fill="#FFFFFF" d="M639.287,686.85c0,1.977-0.327,3.771-1.019,5.404c-0.662,1.615-1.624,3.029-2.865,4.211
			c-1.236,1.185-2.732,2.113-4.485,2.767c-1.76,0.656-3.695,0.985-5.809,0.985c-2.484,0-4.753-0.342-6.814-1.043
			c-2.063-0.686-4.027-1.897-5.889-3.603l3.343-4.182c1.279,1.391,2.665,2.441,4.163,3.165c1.492,0.704,3.19,1.061,5.086,1.061
			c1.832,0,3.342-0.259,4.557-0.803c1.196-0.514,2.151-1.205,2.865-2.042c0.714-0.838,1.219-1.806,1.515-2.871
			c0.285-1.086,0.43-2.166,0.43-3.255V682.8h-0.173c-0.947,1.58-2.22,2.735-3.849,3.477c-1.628,0.746-3.334,1.117-5.12,1.117
			c-1.897,0-3.655-0.327-5.284-1.009c-1.622-0.675-3.029-1.594-4.189-2.785c-1.164-1.182-2.077-2.586-2.73-4.222
			c-0.657-1.615-0.997-3.38-0.997-5.276s0.317-3.682,0.937-5.327c0.61-1.675,1.501-3.117,2.656-4.362
			c1.154-1.243,2.531-2.205,4.154-2.901c1.629-0.699,3.443-1.043,5.454-1.043c1.756,0,3.459,0.389,5.12,1.135
			c1.659,0.786,2.956,1.856,3.907,3.245h0.114v-3.723h4.923V686.85z M625.826,665.066c-1.328,0-2.501,0.226-3.556,0.679
			c-1.065,0.459-1.96,1.086-2.691,1.86c-0.718,0.796-1.284,1.743-1.693,2.848c-0.411,1.116-0.603,2.336-0.603,3.648
			c0,2.616,0.771,4.729,2.296,6.326c1.536,1.592,3.61,2.372,6.247,2.372c2.635,0,4.709-0.78,6.241-2.372
			c1.527-1.597,2.297-3.71,2.297-6.326c0-1.313-0.197-2.532-0.6-3.648c-0.408-1.104-0.974-2.052-1.697-2.848
			c-0.737-0.774-1.622-1.401-2.686-1.86C628.318,665.292,627.144,665.066,625.826,665.066z"/>
		<path fill="#FFFFFF" d="M663.162,661.125h4.936v3.999h0.103c0.627-1.388,1.705-2.504,3.231-3.377
			c1.531-0.849,3.31-1.279,5.319-1.279c1.245,0,2.428,0.195,3.58,0.583c1.154,0.38,2.143,0.966,3.014,1.77
			c0.851,0.804,1.542,1.838,2.047,3.104c0.507,1.252,0.767,2.739,0.767,4.452v16.703h-4.927v-15.334
			c0-1.201-0.163-2.229-0.488-3.082c-0.328-0.871-0.775-1.564-1.318-2.088c-0.553-0.544-1.17-0.919-1.892-1.152
			c-0.7-0.242-1.438-0.357-2.219-0.357c-1.014,0-1.963,0.175-2.844,0.501c-0.87,0.325-1.636,0.847-2.306,1.55
			c-0.653,0.72-1.161,1.617-1.526,2.71c-0.37,1.105-0.541,2.397-0.541,3.887v13.366h-4.936V661.125z"/>
		<path fill="#FFFFFF" d="M713.762,675.909c0,1.132,0.236,2.16,0.736,3.097c0.498,0.925,1.138,1.712,1.941,2.383
			c0.804,0.652,1.729,1.157,2.793,1.524c1.057,0.374,2.158,0.551,3.281,0.551c1.539,0,2.873-0.351,4.003-1.069
			c1.125-0.719,2.167-1.653,3.128-2.818l3.713,2.852c-2.748,3.536-6.558,5.306-11.499,5.306c-2.04,0-3.892-0.348-5.552-1.038
			c-1.668-0.701-3.068-1.649-4.214-2.883c-1.15-1.223-2.044-2.647-2.67-4.321c-0.604-1.662-0.922-3.457-0.922-5.39
			c0-1.944,0.334-3.725,1.001-5.395c0.695-1.666,1.617-3.097,2.801-4.329c1.19-1.224,2.605-2.171,4.249-2.867
			c1.637-0.699,3.425-1.043,5.367-1.043c2.293,0,4.233,0.396,5.826,1.2c1.591,0.801,2.904,1.857,3.907,3.159
			c1.026,1.29,1.77,2.748,2.227,4.374c0.453,1.623,0.675,3.27,0.675,4.96v1.748H713.762z M729.302,671.968
			c-0.033-1.114-0.209-2.101-0.515-3.017c-0.306-0.9-0.78-1.702-1.392-2.375c-0.63-0.684-1.401-1.204-2.329-1.592
			c-0.939-0.393-2.016-0.572-3.261-0.572c-1.197,0-2.313,0.221-3.313,0.678c-1.002,0.463-1.849,1.061-2.536,1.787
			c-0.708,0.729-1.243,1.546-1.616,2.44c-0.401,0.884-0.578,1.777-0.578,2.65H729.302z"/>
		<path fill="#FFFFFF" d="M756.897,661.125h4.932v3.999h0.104c0.337-0.687,0.781-1.339,1.319-1.89
			c0.543-0.563,1.152-1.048,1.831-1.456c0.679-0.396,1.428-0.725,2.224-0.946c0.804-0.253,1.607-0.364,2.406-0.364
			c0.801,0,1.538,0.104,2.193,0.323l-0.223,5.315c-0.41-0.103-0.805-0.208-1.214-0.271c-0.395-0.083-0.803-0.114-1.198-0.114
			c-2.404,0-4.24,0.681-5.531,2.031c-1.279,1.347-1.911,3.445-1.911,6.291v13.037h-4.932V661.125z"/>
	</g>
	<g>
		<path fill="#FFFFFF" d="M91.021,448.089h14.788v58.31h0.328c1.853-4.168,5.097-7.53,9.688-10.105
			c4.6-2.564,9.907-3.864,15.934-3.864c3.722,0,7.31,0.574,10.754,1.728c3.462,1.152,6.461,2.943,9.034,5.347
			c2.576,2.402,4.637,5.497,6.155,9.272c1.54,3.78,2.306,8.242,2.306,13.393v50.088h-14.78v-45.981c0-3.618-0.49-6.715-1.482-9.292
			c-0.981-2.563-2.291-4.644-3.943-6.24c-1.636-1.575-3.519-2.726-5.67-3.449c-2.119-0.696-4.346-1.063-6.653-1.063
			c-3.058,0-5.903,0.496-8.537,1.479c-2.622,0.981-4.927,2.556-6.892,4.682c-1.971,2.128-3.511,4.845-4.605,8.142
			c-1.094,3.271-1.638,7.163-1.638,11.654v40.068H91.021V448.089z"/>
		<path fill="#FFFFFF" d="M178.57,533.326c0-5.679,1.07-10.998,3.205-15.926c2.13-4.917,5.055-9.251,8.785-12.972
			c3.72-3.73,8.101-6.655,13.133-8.788c5.04-2.142,10.465-3.212,16.269-3.212c5.807,0,11.225,1.07,16.263,3.212
			c5.037,2.133,9.421,5.058,13.135,8.788c3.727,3.721,6.667,8.055,8.79,12.972c2.135,4.928,3.207,10.247,3.207,15.926
			c0,5.694-1.072,11.041-3.207,16.012c-2.123,4.996-5.063,9.323-8.79,12.983c-3.714,3.685-8.099,6.571-13.135,8.707
			c-5.038,2.135-10.456,3.207-16.263,3.207c-5.803,0-11.229-1.072-16.269-3.207c-5.032-2.136-9.413-5.022-13.133-8.707
			c-3.729-3.66-6.655-7.987-8.785-12.983C179.641,544.367,178.57,539.021,178.57,533.326z M194.333,533.326
			c0,3.945,0.6,7.591,1.816,10.936c1.198,3.349,2.893,6.175,5.098,8.525c2.179,2.37,4.859,4.229,8.044,5.589
			c3.17,1.378,6.727,2.063,10.671,2.063c3.939,0,7.495-0.686,10.674-2.063c3.183-1.359,5.864-3.219,8.05-5.589
			c2.188-2.351,3.883-5.177,5.083-8.525c1.207-3.345,1.817-6.99,1.817-10.936c0-3.938-0.61-7.576-1.817-10.917
			c-1.199-3.351-2.894-6.196-5.083-8.544c-2.187-2.346-4.867-4.209-8.05-5.59c-3.18-1.354-6.735-2.045-10.674-2.045
			c-3.944,0-7.501,0.691-10.671,2.045c-3.185,1.381-5.865,3.244-8.044,5.59c-2.205,2.348-3.9,5.193-5.098,8.544
			C194.933,525.75,194.333,529.388,194.333,533.326z"/>
		<path fill="#FFFFFF" d="M279.909,494.405h14.788v11.993h0.326c1.861-4.168,5.09-7.53,9.69-10.105
			c4.6-2.564,9.913-3.864,15.933-3.864c3.722,0,7.309,0.574,10.77,1.728c3.445,1.152,6.444,2.943,9.034,5.347
			c2.56,2.402,4.615,5.497,6.153,9.272c1.526,3.78,2.293,8.242,2.293,13.393v50.088h-14.787v-45.981
			c0-3.618-0.482-6.715-1.472-9.292c-0.984-2.563-2.293-4.644-3.945-6.24c-1.639-1.575-3.528-2.726-5.656-3.449
			c-2.137-0.696-4.361-1.063-6.654-1.063c-3.071,0-5.923,0.496-8.551,1.479c-2.618,0.981-4.924,2.556-6.89,4.682
			c-1.973,2.128-3.512,4.845-4.591,8.142c-1.104,3.271-1.653,7.163-1.653,11.654v40.068h-14.788V494.405z"/>
		<path fill="#FFFFFF" d="M449.261,571.601c0,5.924-1.021,11.312-3.043,16.185c-2.031,4.866-4.911,9.077-8.626,12.656
			c-3.728,3.544-8.208,6.312-13.477,8.286c-5.247,1.966-11.045,2.947-17.4,2.947c-7.442,0-14.259-1.027-20.443-3.119
			c-6.193-2.072-12.08-5.689-17.668-10.842l10.018-12.478c3.831,4.171,7.999,7.311,12.494,9.457c4.48,2.123,9.58,3.191,15.271,3.191
			c5.477,0,10.024-0.789,13.634-2.377c3.609-1.587,6.489-3.645,8.618-6.16c2.144-2.521,3.648-5.402,4.51-8.629
			c0.894-3.23,1.324-6.483,1.324-9.776v-11.485h-0.498c-2.844,4.695-6.699,8.182-11.574,10.418
			c-4.865,2.245-9.985,3.371-15.36,3.371c-5.69,0-10.976-1.014-15.85-3.031c-4.875-2.026-9.066-4.822-12.57-8.378
			c-3.497-3.557-6.23-7.767-8.208-12.65c-1.966-4.866-2.948-10.166-2.948-15.86c0-5.679,0.922-11.021,2.791-16.014
			c1.853-4.974,4.517-9.326,7.964-13.059c3.453-3.71,7.612-6.618,12.487-8.698c4.859-2.075,10.314-3.127,16.334-3.127
			c5.261,0,10.376,1.155,15.36,3.456c4.979,2.29,8.902,5.524,11.746,9.691h0.326v-11.171h14.787V571.601z M408.851,506.23
			c-3.944,0-7.5,0.691-10.68,2.045c-3.17,1.381-5.856,3.244-8.04,5.59c-2.187,2.348-3.898,5.193-5.096,8.544
			c-1.205,3.341-1.816,6.979-1.816,10.917c0,7.898,2.316,14.206,6.913,18.977c4.602,4.766,10.845,7.154,18.719,7.154
			c7.882,0,14.124-2.389,18.726-7.154c4.591-4.771,6.897-11.078,6.897-18.977c0-3.938-0.609-7.576-1.809-10.917
			c-1.205-3.351-2.904-6.196-5.089-8.544c-2.198-2.346-4.867-4.209-8.054-5.59C416.347,506.922,412.787,506.23,408.851,506.23z"/>
		<path fill="#FFFFFF" d="M517.252,494.405h14.787v11.171h0.327c2.853-4.167,6.758-7.401,11.754-9.691
			c4.97-2.301,10.096-3.456,15.353-3.456c6.019,0,11.475,1.052,16.341,3.127c4.876,2.08,9.037,4.988,12.482,8.698
			c3.451,3.732,6.109,8.085,7.97,13.059c1.852,4.992,2.79,10.335,2.79,16.014c0,5.821-0.938,11.208-2.79,16.188
			c-1.86,4.975-4.519,9.31-7.97,12.978c-3.445,3.67-7.606,6.531-12.482,8.619c-4.866,2.079-10.322,3.125-16.341,3.125
			c-5.581,0-10.844-1.176-15.771-3.535c-4.936-2.351-8.691-5.56-11.336-9.607h-0.327v57.5h-14.787V494.405z M557.663,506.23
			c-3.944,0-7.502,0.691-10.673,2.045c-3.176,1.381-5.863,3.244-8.052,5.59c-2.179,2.348-3.886,5.193-5.082,8.544
			c-1.214,3.341-1.817,6.979-1.817,10.917c0,3.945,0.604,7.591,1.817,10.936c1.196,3.349,2.903,6.175,5.082,8.525
			c2.188,2.37,4.876,4.229,8.052,5.589c3.171,1.378,6.729,2.063,10.673,2.063s7.501-0.686,10.672-2.063
			c3.187-1.359,5.863-3.219,8.053-5.589c2.195-2.351,3.885-5.177,5.097-8.525c1.191-3.345,1.793-6.99,1.793-10.936
			c0-3.938-0.602-7.576-1.793-10.917c-1.212-3.351-2.901-6.196-5.097-8.544c-2.189-2.346-4.866-4.209-8.053-5.59
			C565.164,506.922,561.607,506.23,557.663,506.23z"/>
		<path fill="#FFFFFF" d="M617.936,503.939c4.176-3.84,9-6.707,14.461-8.631c5.477-1.919,10.956-2.88,16.424-2.88
			c5.692,0,10.604,0.727,14.707,2.142c4.102,1.425,7.473,3.341,10.106,5.743c2.618,2.421,4.578,5.187,5.827,8.303
			c1.259,3.123,1.881,6.378,1.881,9.771v39.75c0,2.743,0.053,5.259,0.172,7.563c0.113,2.293,0.277,4.48,0.494,6.556h-13.136
			c-0.33-3.937-0.5-7.866-0.5-11.816h-0.327c-3.29,5.043-7.174,8.583-11.672,10.671c-4.479,2.079-9.686,3.125-15.596,3.125
			c-3.611,0-7.057-0.499-10.347-1.489c-3.287-0.974-6.168-2.454-8.622-4.427c-2.464-1.966-4.407-4.4-5.835-7.304
			c-1.425-2.901-2.13-6.272-2.13-10.101c0-5.048,1.117-9.255,3.363-12.653c2.247-3.396,5.306-6.162,9.192-8.301
			c3.899-2.136,8.438-3.658,13.648-4.594c5.192-0.925,10.745-1.388,16.669-1.388h10.829v-3.287c0-1.982-0.388-3.947-1.138-5.914
			c-0.769-1.986-1.92-3.759-3.462-5.348c-1.533-1.57-3.438-2.834-5.746-3.774c-2.292-0.922-5.036-1.402-8.214-1.402
			c-2.847,0-5.34,0.285-7.473,0.836c-2.129,0.546-4.079,1.221-5.829,2.046c-1.75,0.829-3.34,1.791-4.767,2.867
			c-1.423,1.103-2.787,2.136-4.104,3.132L617.936,503.939z M659.664,534.821c-3.505,0-7.088,0.177-10.753,0.574
			c-3.671,0.389-7.009,1.112-10.017,2.208c-3.014,1.104-5.479,2.619-7.4,4.604c-1.91,1.964-2.872,4.493-2.872,7.551
			c0,4.49,1.506,7.716,4.517,9.698c3.009,1.966,7.088,2.947,12.238,2.947c4.039,0,7.5-0.679,10.343-2.049
			c2.851-1.374,5.151-3.156,6.899-5.344c1.756-2.188,3.021-4.627,3.789-7.309c0.75-2.676,1.138-5.345,1.138-7.962v-4.92H659.664z"/>
		<path fill="#FFFFFF" d="M702.867,494.405h14.779v11.993h0.327c1.868-4.168,5.099-7.53,9.689-10.105
			c4.612-2.564,9.92-3.864,15.944-3.864c3.712,0,7.304,0.574,10.743,1.728c3.461,1.152,6.474,2.943,9.044,5.347
			c2.572,2.402,4.626,5.497,6.162,9.272c1.538,3.78,2.289,8.242,2.289,13.393v50.088h-14.78v-45.981
			c0-3.618-0.482-6.715-1.479-9.292c-0.969-2.563-2.294-4.644-3.943-6.24c-1.639-1.575-3.521-2.726-5.656-3.449
			c-2.14-0.696-4.362-1.063-6.655-1.063c-3.073,0-5.91,0.496-8.552,1.479c-2.621,0.981-4.917,2.556-6.883,4.682
			c-1.979,2.128-3.506,4.845-4.601,8.142c-1.092,3.271-1.65,7.163-1.65,11.654v40.068h-14.779V494.405z"/>
	</g>
</g>
</svg>
